# xmcd CD database file
#
# Track frame offsets:
#	182
#	20025
#	36795
#	51750
#	75707
#	96432
#	115677
#	131295
#	150782
#	165240
#	185525
#	200210
#
# Disc length: 2885 seconds
#
# Revision: 2
# Processed by: cddbd v1.5.1PL0 Copyright (c) Steve Scherf et al.
# Submitted via: CDex 1.51
#
DISCID=910b430c
DTITLE=Timbuk 3 - A hundred lovers
DYEAR=1995
DGENRE=misc
TTITLE0=Sunshine is dangerous
TTITLE1=A hundred lovers
TTITLE2=Just wanna funk with your mind
TTITLE3=Legalize our love
TTITLE4=Cynical
TTITLE5=Not yet gone
TTITLE6=Prey
TTITLE7=Shotgun wedding
TTITLE8=Kitchen fire
TTITLE9=Inside out
TTITLE10=Born to be wild
TTITLE11=Looks like dark to me
EXTD=YEAR: 1995
EXTT0=
EXTT1=
EXTT2=
EXTT3=
EXTT4=
EXTT5=
EXTT6=
EXTT7=
EXTT8=
EXTT9=
EXTT10=Bonus track
EXTT11=Bonus track
PLAYORDER=
